<svg width="749" height="57" viewBox="0 0 749 57" fill="none" xmlns="http://www.w3.org/2000/svg">
<path d="M450.973 31.9995L651.973 31.9995" stroke="#B8AE9B" stroke-width="1.49893" stroke-dasharray="7.99 7.99"/>
<path d="M90.9717 31.9995L291.972 31.9995" stroke="#B8AE9B" stroke-width="1.49893" stroke-dasharray="7.99 7.99"/>
<circle cx="22.5" cy="22.5" r="22.5" transform="matrix(1 0 -0.000872668 1 703.989 11.9995)" fill="#0B0B0B"/>
<path d="M720.596 30.6384C720.709 28.9037 721.373 27.5513 722.586 26.5813C723.818 25.6113 725.385 25.1263 727.288 25.1263C728.594 25.1263 729.722 25.3595 730.673 25.8258C731.624 26.2922 732.341 26.9264 732.826 27.7285C733.31 28.5306 733.552 29.4353 733.551 30.4426C733.55 31.5991 733.241 32.5877 732.625 33.4085C732.009 34.2292 731.271 34.7795 730.413 35.0593L730.413 35.1712C731.513 35.507 732.371 36.1225 732.986 37.0179C733.6 37.8946 733.907 39.0231 733.906 40.4035C733.905 41.504 733.652 42.4833 733.148 43.3414C732.643 44.1994 731.897 44.8803 730.908 45.3839C729.919 45.8689 728.734 46.1114 727.354 46.1114C725.339 46.1114 723.679 45.5984 722.374 44.5725C721.088 43.5279 720.399 42.0356 720.308 40.0957H723.386C723.459 41.0843 723.841 41.8957 724.531 42.53C725.22 43.1455 726.153 43.4533 727.328 43.4533C728.466 43.4533 729.343 43.1455 729.959 42.53C730.575 41.8957 730.883 41.0843 730.884 40.0957C730.885 38.79 730.467 37.8666 729.628 37.3257C728.807 36.7661 727.539 36.4863 725.823 36.4863H725.096L725.098 33.8561H725.853C727.364 33.8375 728.512 33.5857 729.296 33.1007C730.098 32.6157 730.5 31.8509 730.501 30.8063C730.501 29.9109 730.213 29.2021 729.635 28.6798C729.057 28.1389 728.237 27.8684 727.174 27.8684C726.129 27.8684 725.317 28.1389 724.739 28.6798C724.16 29.2021 723.814 29.855 723.702 30.6384H720.596Z" fill="white"/>
<circle cx="22.5" cy="22.5" r="22.5" transform="matrix(1 0 -0.000872668 1 0.991211 9.99951)" fill="#0B0B0B"/>
<path d="M20.234 28.5119L20.2366 25.602H26.0564L26.0386 45.9995H22.8209L22.8362 28.5119H20.234Z" fill="white"/>
<circle cx="22.5" cy="22.5" r="22.5" transform="matrix(1 0 -0.000872668 1 352.99 11.9995)" fill="#0B0B0B"/>
<path d="M371.407 39.6626C373.199 38.1143 374.608 36.8459 375.635 35.8573C376.681 34.85 377.549 33.8054 378.24 32.7235C378.931 31.6416 379.277 30.5597 379.278 29.4778C379.279 28.3586 379.01 27.4819 378.469 26.8477C377.947 26.2135 377.118 25.8964 375.98 25.8964C374.879 25.8964 374.021 26.2508 373.405 26.9596C372.807 27.6498 372.489 28.5825 372.451 29.7576H369.373C369.431 27.6311 370.066 26.0083 371.28 24.8891C372.512 23.7512 374.07 23.1823 375.954 23.1823C377.987 23.1823 379.572 23.7419 380.709 24.8611C381.865 25.9803 382.442 27.4726 382.44 29.3379C382.439 30.681 382.093 31.9774 381.401 33.2272C380.729 34.4583 379.916 35.5682 378.964 36.5568C378.031 37.5268 376.836 38.6553 375.38 39.9424L374.12 41.0616H382.989L382.987 43.7197H369.389L369.391 41.3973L371.407 39.6626Z" fill="white"/>
</svg>
