<svg width="24" height="24" viewBox="0 0 24 24" fill="none" xmlns="http://www.w3.org/2000/svg">
<g clip-path="url(#clip0_29_75)">
<path d="M15.4672 0.430496C15.2919 0.437465 14.8338 0.386943 14.6576 0.430496L3.32101 3.66872C1.9116 4.01192 0.544594 5.50539 0.889512 6.90694L2.50297 13.3834C2.60383 13.7872 3.03568 13.8804 3.31182 14.1929C3.58797 14.5054 3.7309 14.851 4.12067 15.0025L4.12208 13.3834C4.12418 10.9819 6.56697 9.33561 8.98295 9.33561H19.5072L17.8944 2.04961C17.7496 1.46514 17.5693 1.602 17.0856 1.24005C16.6019 0.878108 16.0724 0.407298 15.4672 0.430496V0.430496ZM16.2732 4.47827L17.0806 6.90694L13.8417 7.71649L13.8438 5.28783L16.2732 4.47827V4.47827ZM8.98154 10.9547C7.53037 10.9547 5.74245 11.9409 5.74119 13.3834L5.73484 20.6694C5.73358 22.1119 7.51978 23.098 8.97094 23.098H21.1143C22.5654 23.098 23.5438 22.1119 23.5451 20.6694L23.5514 13.3834C23.5527 11.9409 22.576 10.9547 21.1249 10.9547L8.98154 10.9547ZM8.98012 12.5738L21.1235 12.5738C21.7991 12.5738 21.9329 12.7118 21.9323 13.3834L21.9316 14.1929L7.3596 14.1929L7.36031 13.3834C7.36089 12.7118 8.30449 12.5738 8.98012 12.5738ZM7.35748 16.6216H21.9295L21.926 20.6694C21.9254 21.341 21.7913 21.4789 21.1157 21.4789H8.97235C8.64615 21.4771 7.5837 21.7082 7.35324 21.4789C7.12278 21.2497 7.35551 20.9936 7.35395 20.6694L7.35748 16.6216Z" fill="#020204"/>
</g>
<defs>
<clipPath id="clip0_29_75">
<rect width="22.6676" height="22.6676" fill="white" transform="matrix(1 0 -0.000872668 1 0.89502 0.430359)"/>
</clipPath>
</defs>
</svg>
